<svg width="108" height="44" viewBox="0 0 108 44" fill="none" xmlns="http://www.w3.org/2000/svg">
<path d="M25.352 43V37H12.296C20.6 30.952 25.112 26.2 25.112 20.728C25.112 14.344 19.688 10.504 12.872 10.504C8.408 10.504 3.656 12.136 0.536 15.736L4.424 20.248C6.584 17.992 9.368 16.552 13.016 16.552C15.656 16.552 18.2 17.944 18.2 20.728C18.2 24.664 14.36 27.976 1.256 37.672V43H25.352ZM44.1972 43.576C51.4932 43.576 56.4373 38.824 56.4373 32.584C56.4373 25.768 51.3012 22.168 45.5412 22.168C42.0372 22.168 38.8212 24.136 37.3332 26.296C37.2852 26.056 37.2852 25.864 37.2852 25.624C37.2852 20.536 40.5972 16.552 45.3012 16.552C48.1332 16.552 49.9572 17.416 51.6852 19.048L54.7572 13.816C52.4532 11.848 49.1892 10.504 45.3012 10.504C35.8452 10.504 30.3732 17.368 30.3732 27.064C30.3732 36.088 34.4532 43.576 44.1972 43.576ZM43.8132 37.528C39.3492 37.528 37.6212 34.12 37.3332 31.048C38.8692 29.128 41.1732 28.024 43.5732 28.024C46.6452 28.024 49.5252 29.464 49.5252 32.824C49.5252 35.08 47.5092 37.528 43.8132 37.528ZM73.7844 43.576C82.9044 43.576 87.0324 35.272 87.0324 27.016C87.0324 18.76 82.9044 10.504 73.7844 10.504C64.6164 10.504 60.5364 18.76 60.5364 27.016C60.5364 35.272 64.6164 43.576 73.7844 43.576ZM73.7844 37.528C69.1764 37.528 67.4484 32.92 67.4484 27.016C67.4484 21.112 69.1764 16.552 73.7844 16.552C78.3444 16.552 80.0724 21.112 80.0724 27.016C80.0724 32.92 78.3444 37.528 73.7844 37.528Z" fill="white"/>
<path d="M97.598 25.672H100.574V23.032C104.846 22.552 107.198 20.344 107.198 17.032C107.198 13 103.742 11.848 100.574 11.128V6.904C101.87 7.288 103.07 7.96 103.934 8.776L106.478 6.136C105.278 4.792 103.31 3.784 100.574 3.448V0.663999H97.598V3.352C93.326 3.688 90.782 6.28 90.782 9.064C90.782 13.288 94.382 14.296 97.598 15.016V19.528C95.726 19.192 94.142 18.136 92.99 17.032L90.446 20.008C91.982 21.688 94.382 22.84 97.598 23.08V25.672ZM95.534 8.632C95.534 7.768 96.302 7.048 97.598 6.76V10.408C96.35 10.024 95.534 9.544 95.534 8.632ZM102.446 17.608C102.446 18.424 101.774 19.144 100.574 19.48V15.736C101.678 16.12 102.446 16.648 102.446 17.608Z" fill="url(#paint0_linear)"/>
<defs>
<linearGradient id="paint0_linear" x1="54" y1="-1" x2="54" y2="58" gradientUnits="userSpaceOnUse">
<stop stop-color="#F2A04A"/>
<stop offset="1" stop-color="#F2C24D"/>
</linearGradient>
</defs>
</svg>
