<?xml version="1.0" encoding="utf-8"?>
<!-- Generator: Adobe Illustrator 21.1.0, SVG Export Plug-In . SVG Version: 6.00 Build 0)  -->
<svg version="1.1" id="Layer_1" xmlns="http://www.w3.org/2000/svg" xmlns:xlink="http://www.w3.org/1999/xlink" x="0px" y="0px"
	 viewBox="0 0 1113.7 434.9" style="enable-background:new 0 0 1113.7 434.9;" xml:space="preserve">
<style type="text/css">
	.st0{fill:none;stroke:#000000;stroke-width:3;}
	.st1{fill:url(#SVGID_1_);}
	.st2{fill:url(#SVGID_2_);stroke:#F4F8FA;stroke-width:3;}
	.st3{fill:url(#SVGID_3_);}
	.st4{fill:url(#SVGID_4_);stroke:#F4F8FA;stroke-width:3;}
	.st5{fill:#F2A04A;}
	.st6{fill:url(#SVGID_5_);}
	.st7{fill:url(#SVGID_6_);stroke:#F4F8FA;stroke-width:3;}
	.st8{fill:url(#SVGID_7_);}
	.st9{fill:url(#SVGID_8_);stroke:#F4F8FA;stroke-width:3;}
	.st10{fill:url(#SVGID_9_);}
	.st11{fill:url(#SVGID_10_);stroke:#F4F8FA;stroke-width:3;}
	.st12{fill:url(#SVGID_11_);}
	.st13{fill:url(#SVGID_12_);stroke:#F4F8FA;stroke-width:3;}
	.st14{fill:url(#SVGID_13_);}
	.st15{fill:url(#SVGID_14_);stroke:#F4F8FA;stroke-width:3;}
	.st16{fill:url(#SVGID_15_);}
	.st17{fill:url(#SVGID_16_);stroke:#F4F8FA;stroke-width:3;}
	.st18{fill:url(#SVGID_17_);}
	.st19{fill:none;stroke:url(#SVGID_18_);stroke-width:2.8346;stroke-miterlimit:10;}
	.st20{font-family:'ProximaNova-Bold';}
	.st21{font-size:22px;}
	.st22{fill:#245EA9;}
</style>
<g>
	<rect x="964.2" y="256.6" class="st0" width="23" height="23"/>
	
		<linearGradient id="SVGID_1_" gradientUnits="userSpaceOnUse" x1="-172.1962" y1="955.9538" x2="-172.1962" y2="981.9538" gradientTransform="matrix(-1 0 0 1 803.4665 -700.8665)">
		<stop  offset="0" style="stop-color:#F2A04A"/>
		<stop  offset="1" style="stop-color:#F2C24D"/>
	</linearGradient>
	<path class="st1" d="M962.7,255.1h26v26h-26V255.1z M985.7,258.1h-20v20h20V258.1z"/>
	
		<linearGradient id="SVGID_2_" gradientUnits="userSpaceOnUse" x1="-172.1962" y1="3.5041" x2="-172.1962" y2="23.5041" gradientTransform="matrix(-1 0 0 -1 803.4665 281.5917)">
		<stop  offset="0" style="stop-color:#F2A04A"/>
		<stop  offset="1" style="stop-color:#F2C24D"/>
	</linearGradient>
	<rect x="967.2" y="259.6" class="st2" width="17" height="17"/>
	<rect x="724.2" y="383.6" class="st0" width="23" height="23"/>
	
		<linearGradient id="SVGID_3_" gradientUnits="userSpaceOnUse" x1="67.8038" y1="1082.9086" x2="67.8038" y2="1108.9086" gradientTransform="matrix(-1 0 0 1 803.4665 -700.8665)">
		<stop  offset="0" style="stop-color:#F2A04A"/>
		<stop  offset="1" style="stop-color:#F2C24D"/>
	</linearGradient>
	<path class="st3" d="M722.7,382.1h26v26h-26V382.1z M745.7,385.1h-20v20h20V385.1z"/>
	
		<linearGradient id="SVGID_4_" gradientUnits="userSpaceOnUse" x1="67.8038" y1="-123.4505" x2="67.8038" y2="-103.4505" gradientTransform="matrix(-1 0 0 -1 803.4665 281.5917)">
		<stop  offset="0" style="stop-color:#F2A04A"/>
		<stop  offset="1" style="stop-color:#F2C24D"/>
	</linearGradient>
	<rect x="727.2" y="386.6" class="st4" width="17" height="17"/>
	<rect x="974.8" y="281" class="st5" width="2.8" height="114"/>
	<rect x="748.7" y="392.2" class="st5" width="229" height="2.8"/>
	<rect x="963.5" y="127.6" class="st0" width="23" height="23"/>
	
		<linearGradient id="SVGID_5_" gradientUnits="userSpaceOnUse" x1="-185.475" y1="712.0407" x2="-185.475" y2="738.0407" gradientTransform="matrix(-1 0 0 1 789.5498 -585.9536)">
		<stop  offset="0" style="stop-color:#F2A04A"/>
		<stop  offset="1" style="stop-color:#F2C24D"/>
	</linearGradient>
	<path class="st6" d="M962,126.1h26v26h-26V126.1z M985,129.1h-20v20h20V129.1z"/>
	
		<linearGradient id="SVGID_6_" gradientUnits="userSpaceOnUse" x1="-185.475" y1="715.064" x2="-185.475" y2="735.064" gradientTransform="matrix(-1 0 0 1 789.5498 -585.9536)">
		<stop  offset="0" style="stop-color:#F2A04A"/>
		<stop  offset="1" style="stop-color:#F2C24D"/>
	</linearGradient>
	<rect x="966.5" y="130.6" class="st7" width="17" height="17"/>
	<rect x="730.5" y="12.6" class="st0" width="23" height="23"/>
	
		<linearGradient id="SVGID_7_" gradientUnits="userSpaceOnUse" x1="47.525" y1="597.0407" x2="47.525" y2="623.0407" gradientTransform="matrix(-1 0 0 1 789.5498 -585.9536)">
		<stop  offset="0" style="stop-color:#F2A04A"/>
		<stop  offset="1" style="stop-color:#F2C24D"/>
	</linearGradient>
	<path class="st8" d="M729,11.1h26v26h-26V11.1z M752,14.1h-20v20h20V14.1z"/>
	
		<linearGradient id="SVGID_8_" gradientUnits="userSpaceOnUse" x1="47.525" y1="600.0406" x2="47.525" y2="620.0406" gradientTransform="matrix(-1 0 0 1 789.5498 -585.9536)">
		<stop  offset="0" style="stop-color:#F2A04A"/>
		<stop  offset="1" style="stop-color:#F2C24D"/>
	</linearGradient>
	<rect x="733.5" y="15.6" class="st9" width="17" height="17"/>
	<rect x="974.3" y="22.1" class="st5" width="2.8" height="104"/>
	<rect x="755" y="22.1" class="st5" width="222" height="2.8"/>
	<rect x="85.8" y="257.1" class="st0" width="23" height="23"/>
	
		<linearGradient id="SVGID_9_" gradientUnits="userSpaceOnUse" x1="66.2332" y1="956.4536" x2="66.2332" y2="982.4536" gradientTransform="matrix(1 0 0 1 31.0417 -700.8665)">
		<stop  offset="0" style="stop-color:#F2A04A"/>
		<stop  offset="1" style="stop-color:#F2C24D"/>
	</linearGradient>
	<path class="st10" d="M110.3,281.6h-26v-26h26V281.6z M87.3,278.6h20v-20h-20V278.6z"/>
	
		<linearGradient id="SVGID_10_" gradientUnits="userSpaceOnUse" x1="66.2332" y1="3.0042" x2="66.2332" y2="23.0042" gradientTransform="matrix(1 0 0 -1 31.0417 281.5917)">
		<stop  offset="0" style="stop-color:#F2A04A"/>
		<stop  offset="1" style="stop-color:#F2C24D"/>
	</linearGradient>
	<rect x="88.8" y="260.1" class="st11" width="17" height="17"/>
	<rect x="366.5" y="384.1" class="st0" width="23" height="23"/>
	
		<linearGradient id="SVGID_11_" gradientUnits="userSpaceOnUse" x1="346.9332" y1="1083.4084" x2="346.9332" y2="1109.4084" gradientTransform="matrix(1 0 0 1 31.0417 -700.8665)">
		<stop  offset="0" style="stop-color:#F2A04A"/>
		<stop  offset="1" style="stop-color:#F2C24D"/>
	</linearGradient>
	<path class="st12" d="M391,408.6h-26v-26h26V408.6z M368,405.6h20v-20h-20V405.6z"/>
	
		<linearGradient id="SVGID_12_" gradientUnits="userSpaceOnUse" x1="346.9332" y1="-123.9504" x2="346.9332" y2="-103.9504" gradientTransform="matrix(1 0 0 -1 31.0417 281.5917)">
		<stop  offset="0" style="stop-color:#F2A04A"/>
		<stop  offset="1" style="stop-color:#F2C24D"/>
	</linearGradient>
	<rect x="369.5" y="387.1" class="st13" width="17" height="17"/>
	<rect x="95.3" y="281.6" class="st5" width="2.8" height="114"/>
	<rect x="95.3" y="392.8" class="st5" width="269.7" height="2.8"/>
	<g>
		<rect x="85.8" y="127.6" class="st0" width="23" height="23"/>
		
			<linearGradient id="SVGID_13_" gradientUnits="userSpaceOnUse" x1="97.2749" y1="712.0407" x2="97.2749" y2="738.0407" gradientTransform="matrix(1 0 0 1 0 -585.9536)">
			<stop  offset="0" style="stop-color:#F2A04A"/>
			<stop  offset="1" style="stop-color:#F2C24D"/>
		</linearGradient>
		<path class="st14" d="M110.3,152.1h-26v-26h26V152.1z M87.3,149.1h20v-20h-20V149.1z"/>
		
			<linearGradient id="SVGID_14_" gradientUnits="userSpaceOnUse" x1="97.2749" y1="715.064" x2="97.2749" y2="735.064" gradientTransform="matrix(1 0 0 1 0 -585.9536)">
			<stop  offset="0" style="stop-color:#F2A04A"/>
			<stop  offset="1" style="stop-color:#F2C24D"/>
		</linearGradient>
		<rect x="88.8" y="130.6" class="st15" width="17" height="17"/>
		<rect x="356.8" y="12.6" class="st0" width="23" height="23"/>
		
			<linearGradient id="SVGID_15_" gradientUnits="userSpaceOnUse" x1="368.2749" y1="597.0407" x2="368.2749" y2="623.0407" gradientTransform="matrix(1 0 0 1 0 -585.9536)">
			<stop  offset="0" style="stop-color:#F2A04A"/>
			<stop  offset="1" style="stop-color:#F2C24D"/>
		</linearGradient>
		<path class="st16" d="M381.3,37.1h-26v-26h26V37.1z M358.3,34.1h20v-20h-20V34.1z"/>
		
			<linearGradient id="SVGID_16_" gradientUnits="userSpaceOnUse" x1="368.2749" y1="600.0406" x2="368.2749" y2="620.0406" gradientTransform="matrix(1 0 0 1 0 -585.9536)">
			<stop  offset="0" style="stop-color:#F2A04A"/>
			<stop  offset="1" style="stop-color:#F2C24D"/>
		</linearGradient>
		<rect x="359.8" y="15.6" class="st17" width="17" height="17"/>
		<rect x="95.3" y="22.1" class="st5" width="2.8" height="104"/>
		<rect x="95.3" y="22.1" class="st5" width="260" height="2.8"/>
	</g>
	
		<linearGradient id="SVGID_17_" gradientUnits="userSpaceOnUse" x1="499.0049" y1="191.104" x2="549.9215" y2="191.104" gradientTransform="matrix(0 1 -1 0 725.7778 -322.7643)">
		<stop  offset="0" style="stop-color:#F2A04A"/>
		<stop  offset="0.4135" style="stop-color:#F2A14A"/>
		<stop  offset="1" style="stop-color:#F2C24D"/>
	</linearGradient>
	<circle class="st18" cx="534.7" cy="201.7" r="25.5"/>
	
		<linearGradient id="SVGID_18_" gradientUnits="userSpaceOnUse" x1="492.8189" y1="175.3655" x2="556.5286" y2="175.3655" gradientTransform="matrix(0 1 -1 0 710.0392 -322.9749)">
		<stop  offset="0" style="stop-color:#F2A04A"/>
		<stop  offset="0.4135" style="stop-color:#F2A14A"/>
		<stop  offset="1" style="stop-color:#F2C24D"/>
	</linearGradient>
	<circle class="st19" cx="534.7" cy="201.7" r="30.4"/>
	<text transform="matrix(1 0 0 1 894.7015 182.3373)"><tspan x="0" y="0" class="st20 st21">Размещение и</tspan><tspan x="-55.1" y="26.4" class="st20 st21">обслуживание майнеров</tspan><tspan x="-68.1" y="52.8" class="st20 st21">в собственном Дата центре</tspan></text>
	<text transform="matrix(1 0 0 1 457.1091 18.3372)"><tspan x="0" y="0" class="st20 st21">Продажа и ремонт</tspan><tspan x="-53.1" y="26.4" class="st20 st21">оборудования для майнинга</tspan></text>
	<text transform="matrix(1 0 0 1 14.3769 182.3376)"><tspan x="0" y="0" class="st20 st21">Инвестиционые</tspan><tspan x="-14.4" y="26.4" class="st20 st21">проекты в области</tspan><tspan x="28.9" y="52.8" class="st20 st21">Blockchain</tspan></text>
	<text transform="matrix(1 0 0 1 440.4573 373.5872)"><tspan x="0" y="0" class="st20 st21">Собственный пул №1</tspan><tspan x="65.5" y="26.4" class="st20 st21">в России</tspan></text>
	<g>
		<text transform="matrix(1 0 0 1 476.5256 428.5872)" class="st22 st20 st21">simgapool.com</text>
	</g>
</g>
</svg>
