<?xml version="1.0" encoding="utf-8"?>
<!-- Generator: Adobe Illustrator 21.1.0, SVG Export Plug-In . SVG Version: 6.00 Build 0)  -->
<svg version="1.1" xmlns="http://www.w3.org/2000/svg" xmlns:xlink="http://www.w3.org/1999/xlink" x="0px" y="0px"
	 viewBox="0 0 375 408.3" style="enable-background:new 0 0 375 408.3;" xml:space="preserve">
<style type="text/css">
	.st0{font-family:'ProximaNova-Bold';}
	.st1{font-size:16px;}
	.st2{font-size:16.0225px;}
	.st3{fill:#245EA9;}
	.st4{font-size:22px;}
	.st5{fill:#F2A04A;}
	.st6{fill:url(#SVGID_1_);}
	.st7{fill:url(#SVGID_2_);}
	.st8{fill:#F4F8FA;}
	.st9{fill:url(#SVGID_3_);}
	.st10{fill:url(#SVGID_4_);}
	.st11{fill:url(#SVGID_5_);}
	.st12{fill:url(#SVGID_6_);}
	.st13{fill:url(#SVGID_7_);}
	.st14{fill:url(#SVGID_8_);}
	.st15{fill:url(#SVGID_9_);}
	.st16{fill:url(#SVGID_10_);}
	.st17{fill:url(#SVGID_11_);}
	.st18{fill:url(#SVGID_12_);}
	.st19{fill:url(#SVGID_13_);}
	.st20{fill:url(#SVGID_14_);}
	.st21{fill:url(#SVGID_15_);}
	.st22{fill:url(#SVGID_16_);}
</style>
<g id="Layer_2">
</g>
<g id="Layer_1">
	<text transform="matrix(1 0 0 1 250.3234 221.4168)"><tspan x="0" y="0" class="st0 st1">Размещение и</tspan><tspan x="-80.1" y="19.2" class="st0 st1">обслуживание майнеров</tspan><tspan x="-99.1" y="38.4" class="st0 st1">в собственном Дата центре</tspan></text>
	<text transform="matrix(1 0 0 1 118.4507 11.5031)"><tspan x="0" y="0" class="st0 st2">Продажа и ремонт</tspan><tspan x="-38.7" y="19.2" class="st0 st2">оборудования для майнинга</tspan></text>
	<text transform="matrix(1 0 0 1 17.9456 138.2503)"><tspan x="0" y="0" class="st0 st1">Инвестиционые</tspan><tspan x="0" y="19.2" class="st0 st1">проекты в области</tspan><tspan x="0" y="38.4" class="st0 st1">Blockchain</tspan></text>
	<text transform="matrix(1 0 0 1 105.6439 362.6666)"><tspan x="0" y="0" class="st0 st1">Собственный пул №1</tspan><tspan x="47.6" y="19.2" class="st0 st1">в России</tspan></text>
	<g>
		<text transform="matrix(1 0 0 1 113.5008 401.6666)" class="st3 st0 st4">simgapool.com</text>
	</g>
	<rect x="24.8" y="17.1" class="st5" width="2.1" height="86.9"/>
	<rect x="24.8" y="16.9" class="st5" width="31.1" height="2.1"/>
	<g>
		<path d="M55.9,24.9V11h13.8v13.8H55.9z M57.5,12.6v10.6h10.6V12.6H57.5z"/>
		
			<linearGradient id="SVGID_1_" gradientUnits="userSpaceOnUse" x1="481.5719" y1="-124.1238" x2="481.5719" y2="-110.3141" gradientTransform="matrix(1 0 0 1 -418.7895 135.1675)">
			<stop  offset="0" style="stop-color:#F2A04A"/>
			<stop  offset="1" style="stop-color:#F2C24D"/>
		</linearGradient>
		<path class="st6" d="M55.9,11h13.8v13.8H55.9V11z M68.1,12.6H57.5v10.6h10.6V12.6z"/>
		<g>
			
				<linearGradient id="SVGID_2_" gradientUnits="userSpaceOnUse" x1="-480.5719" y1="463.4355" x2="-480.5719" y2="474.0584" gradientTransform="matrix(-1 0 0 1 -417.7895 -450.7861)">
				<stop  offset="0" style="stop-color:#F2A04A"/>
				<stop  offset="1" style="stop-color:#F2C24D"/>
			</linearGradient>
			<rect x="58.3" y="13.4" class="st7" width="9" height="9"/>
			<path class="st8" d="M57.5,23.3V12.6h10.6v10.6H57.5z M59.1,14.2v7.4h7.4v-7.4H59.1z"/>
		</g>
	</g>
	<g>
		<path d="M18.9,117.8V104h13.8v13.8H18.9z M20.5,105.6v10.6h10.6v-10.6H20.5z"/>
		
			<linearGradient id="SVGID_3_" gradientUnits="userSpaceOnUse" x1="444.6397" y1="-31.1884" x2="444.6397" y2="-17.3787" gradientTransform="matrix(1 0 0 1 -418.7895 135.1675)">
			<stop  offset="0" style="stop-color:#F2A04A"/>
			<stop  offset="1" style="stop-color:#F2C24D"/>
		</linearGradient>
		<path class="st9" d="M18.9,104h13.8v13.8H18.9V104z M31.2,105.6H20.5v10.6h10.6V105.6z"/>
		<g>
			
				<linearGradient id="SVGID_4_" gradientUnits="userSpaceOnUse" x1="-443.6397" y1="556.371" x2="-443.6397" y2="566.9938" gradientTransform="matrix(-1 0 0 1 -417.7895 -450.7861)">
				<stop  offset="0" style="stop-color:#F2A04A"/>
				<stop  offset="1" style="stop-color:#F2C24D"/>
			</linearGradient>
			<rect x="21.3" y="106.4" class="st10" width="9" height="9"/>
			<path class="st8" d="M20.5,116.2v-10.6h10.6v10.6H20.5z M22.1,107.2v7.4h7.4v-7.4H22.1z"/>
		</g>
	</g>
	<rect x="24.8" y="202.1" class="st5" width="2.1" height="173.9"/>
	<g>
		<path d="M32.8,188.3v13.8H18.9v-13.8H32.8z M31.2,200.5v-10.6H20.5v10.6H31.2z"/>
		
			<linearGradient id="SVGID_5_" gradientUnits="userSpaceOnUse" x1="442.6396" y1="-20.4384" x2="442.6396" y2="-6.6287" gradientTransform="matrix(-1 0 0 -1 468.4899 181.6799)">
			<stop  offset="0" style="stop-color:#F2A04A"/>
			<stop  offset="1" style="stop-color:#F2C24D"/>
		</linearGradient>
		<path class="st11" d="M32.8,202.1H18.9v-13.8h13.8V202.1z M20.5,200.5h10.6v-10.6H20.5V200.5z"/>
		<g>
			
				<linearGradient id="SVGID_6_" gradientUnits="userSpaceOnUse" x1="-441.6396" y1="567.121" x2="-441.6396" y2="577.7438" gradientTransform="matrix(1 0 0 -1 467.4899 767.6335)">
				<stop  offset="0" style="stop-color:#F2A04A"/>
				<stop  offset="1" style="stop-color:#F2C24D"/>
			</linearGradient>
			<rect x="21.3" y="190.7" class="st12" width="9" height="9"/>
			<path class="st8" d="M31.2,189.9v10.6H20.5v-10.6H31.2z M29.6,198.9v-7.4h-7.4v7.4H29.6z"/>
		</g>
	</g>
	<rect x="350.9" y="16.9" class="st5" width="2.1" height="172.4"/>
	<rect x="321.8" y="16.9" class="st5" width="31.1" height="2.1"/>
	<g>
		<path d="M308.1,24.9V11h13.8v13.8H308.1z M309.7,12.6v10.6h10.6V12.6H309.7z"/>
		
			<linearGradient id="SVGID_7_" gradientUnits="userSpaceOnUse" x1="694.8363" y1="-124.1238" x2="694.8363" y2="-110.3141" gradientTransform="matrix(-1 0 0 1 1009.8154 135.1675)">
			<stop  offset="0" style="stop-color:#F2A04A"/>
			<stop  offset="1" style="stop-color:#F2C24D"/>
		</linearGradient>
		<path class="st13" d="M321.9,24.9h-13.8V11h13.8V24.9z M309.7,23.3h10.6V12.6h-10.6V23.3z"/>
		<g>
			
				<linearGradient id="SVGID_8_" gradientUnits="userSpaceOnUse" x1="-693.8363" y1="463.4355" x2="-693.8363" y2="474.0584" gradientTransform="matrix(1 0 0 1 1008.8154 -450.7861)">
				<stop  offset="0" style="stop-color:#F2A04A"/>
				<stop  offset="1" style="stop-color:#F2C24D"/>
			</linearGradient>
			<rect x="310.5" y="13.4" class="st14" width="9" height="9"/>
			<path class="st8" d="M309.7,23.3V12.6h10.6v10.6H309.7z M311.3,14.2v7.4h7.4v-7.4H311.3z"/>
		</g>
	</g>
	<g>
		<path d="M345,202.5v-13.8h13.8v13.8H345z M346.6,190.3v10.6h10.6v-10.6H346.6z"/>
		
			<linearGradient id="SVGID_9_" gradientUnits="userSpaceOnUse" x1="657.9041" y1="53.52" x2="657.9041" y2="67.3297" gradientTransform="matrix(-1 0 0 1 1009.8154 135.1675)">
			<stop  offset="0" style="stop-color:#F2A04A"/>
			<stop  offset="1" style="stop-color:#F2C24D"/>
		</linearGradient>
		<path class="st15" d="M358.8,202.5H345v-13.8h13.8V202.5z M346.6,200.9h10.6v-10.6h-10.6V200.9z"/>
		<g>
			
				<linearGradient id="SVGID_10_" gradientUnits="userSpaceOnUse" x1="-656.9041" y1="641.0793" x2="-656.9041" y2="651.7021" gradientTransform="matrix(1 0 0 1 1008.8154 -450.7861)">
				<stop  offset="0" style="stop-color:#F2A04A"/>
				<stop  offset="1" style="stop-color:#F2C24D"/>
			</linearGradient>
			<rect x="347.4" y="191.1" class="st16" width="9" height="9"/>
			<path class="st8" d="M346.6,200.9v-10.6h10.6v10.6H346.6z M348.2,191.9v7.4h7.4v-7.4H348.2z"/>
		</g>
	</g>
	<rect x="350.9" y="282.5" class="st5" width="2.1" height="93.5"/>
	<rect x="291.1" y="374" class="st5" width="61.8" height="2.1"/>
	<g>
		<path d="M291.2,368.1v13.8h-13.8v-13.8H291.2z M289.6,380.3v-10.6H279v10.6H289.6z"/>
		
			<linearGradient id="SVGID_11_" gradientUnits="userSpaceOnUse" x1="725.5237" y1="199.2472" x2="725.5237" y2="213.0569" gradientTransform="matrix(-1 0 0 -1 1009.8154 581.1679)">
			<stop  offset="0" style="stop-color:#F2A04A"/>
			<stop  offset="1" style="stop-color:#F2C24D"/>
		</linearGradient>
		<path class="st17" d="M291.2,381.9h-13.8v-13.8h13.8V381.9z M279,380.3h10.6v-10.6H279V380.3z"/>
		<g>
			
				<linearGradient id="SVGID_12_" gradientUnits="userSpaceOnUse" x1="-724.5237" y1="786.8065" x2="-724.5237" y2="797.4294" gradientTransform="matrix(1 0 0 -1 1008.8154 1167.1215)">
				<stop  offset="0" style="stop-color:#F2A04A"/>
				<stop  offset="1" style="stop-color:#F2C24D"/>
			</linearGradient>
			<rect x="279.8" y="370.5" class="st18" width="9" height="9"/>
			<path class="st8" d="M289.6,369.7v10.6H279v-10.6H289.6z M288,378.7v-7.4h-7.4v7.4H288z"/>
		</g>
	</g>
	<rect x="24.9" y="374" class="st5" width="61.1" height="2.1"/>
	<g>
		<path d="M99.8,368.1v13.8H86v-13.8H99.8z M98.2,380.3v-10.6H87.6v10.6H98.2z"/>
		
			<linearGradient id="SVGID_13_" gradientUnits="userSpaceOnUse" x1="991.0239" y1="199.2472" x2="991.0239" y2="213.0569" gradientTransform="matrix(1 0 0 -1 -898.1368 581.1679)">
			<stop  offset="0" style="stop-color:#F2A04A"/>
			<stop  offset="1" style="stop-color:#F2C24D"/>
		</linearGradient>
		<path class="st19" d="M86,368.1h13.8v13.8H86V368.1z M98.2,369.7H87.6v10.6h10.6V369.7z"/>
		<g>
			
				<linearGradient id="SVGID_14_" gradientUnits="userSpaceOnUse" x1="-990.0239" y1="786.8065" x2="-990.0239" y2="797.4294" gradientTransform="matrix(-1 0 0 -1 -897.1368 1167.1215)">
				<stop  offset="0" style="stop-color:#F2A04A"/>
				<stop  offset="1" style="stop-color:#F2C24D"/>
			</linearGradient>
			<rect x="88.4" y="370.5" class="st20" width="9" height="9"/>
			<path class="st8" d="M98.2,369.7v10.6H87.6v-10.6H98.2z M96.6,378.7v-7.4h-7.4v7.4H96.6z"/>
		</g>
	</g>
	<g>
		<path d="M358.8,269.3v13.8H345v-13.8H358.8z M357.2,281.6v-10.6h-10.6v10.6H357.2z"/>
		
			<linearGradient id="SVGID_15_" gradientUnits="userSpaceOnUse" x1="657.9041" y1="298.0124" x2="657.9041" y2="311.8221" gradientTransform="matrix(-1 0 0 -1 1009.8154 581.1679)">
			<stop  offset="0" style="stop-color:#F2A04A"/>
			<stop  offset="1" style="stop-color:#F2C24D"/>
		</linearGradient>
		<path class="st21" d="M358.8,283.2H345v-13.8h13.8V283.2z M346.6,281.6h10.6v-10.6h-10.6V281.6z"/>
		<g>
			
				<linearGradient id="SVGID_16_" gradientUnits="userSpaceOnUse" x1="-656.9041" y1="885.5717" x2="-656.9041" y2="896.1946" gradientTransform="matrix(1 0 0 -1 1008.8154 1167.1215)">
				<stop  offset="0" style="stop-color:#F2A04A"/>
				<stop  offset="1" style="stop-color:#F2C24D"/>
			</linearGradient>
			<rect x="347.4" y="271.7" class="st22" width="9" height="9"/>
			<path class="st8" d="M357.2,270.9v10.6h-10.6v-10.6H357.2z M355.6,280v-7.4h-7.4v7.4H355.6z"/>
		</g>
	</g>
</g>
</svg>
