<?xml version="1.0" encoding="utf-8"?>
<!-- Generator: Adobe Illustrator 21.1.0, SVG Export Plug-In . SVG Version: 6.00 Build 0)  -->
<svg version="1.1" id="Layer_1" xmlns="http://www.w3.org/2000/svg" xmlns:xlink="http://www.w3.org/1999/xlink" x="0px" y="0px"
	 viewBox="0 0 797.4 504.1" style="enable-background:new 0 0 797.4 504.1;" xml:space="preserve">
<style type="text/css">
	.st0{fill:#C4C4C4;}
	.st1{fill:url(#SVGID_1_);}
	.st2{fill:#FFFFFF;}
	.st3{fill:none;stroke:#FFFFFF;stroke-width:1.9843;stroke-miterlimit:10;}
</style>
<image style="display:none;overflow:visible;" width="919" height="847" xlink:href="C7A49297.jpg"  transform="matrix(0.9999 0 0 0.9999 -59.9426 -151.75)">
</image>
<path class="st0" d="M676,41.7c38.3-14.4,81.1,5.1,95.4,43.4l26,69.4l-676,253.2c-38.3,14.4-81.1-5.1-95.4-43.4L0,294.9L676,41.7z"
	/>
<linearGradient id="SVGID_1_" gradientUnits="userSpaceOnUse" x1="771.4272" y1="366.1565" x2="26.0078" y2="86.9149" gradientTransform="matrix(1 0 0 -1 0 451.2766)">
	<stop  offset="0" style="stop-color:#F2A04A"/>
	<stop  offset="1" style="stop-color:#F2C24D"/>
</linearGradient>
<path class="st1" d="M676,41.7c38.3-14.4,81.1,5.1,95.4,43.4l26,69.4l-676,253.2c-38.3,14.4-81.1-5.1-95.4-43.4L0,294.9L676,41.7z"
	/>
<circle class="st2" cx="297" cy="3" r="3"/>
<circle class="st2" cx="130.9" cy="129.3" r="3"/>
<polyline class="st3" points="297,3.4 297,26.8 130.9,80.7 130.9,129.3 "/>
<circle class="st2" cx="642" cy="446.8" r="3"/>
<circle class="st2" cx="642" cy="349.5" r="3"/>
<line class="st3" x1="642" y1="349.5" x2="642" y2="446.8"/>
<circle class="st2" cx="5.7" cy="501.1" r="3"/>
<circle class="st2" cx="153" cy="456.1" r="3"/>
<polyline class="st3" points="5.7,501.1 5.7,456.1 152.4,456.1 "/>
</svg>
